# xmcd
#
# Track frame offsets:
#	183
#	14408
#	26283
#	40083
#	56333
#	66158
#	75783
#	89383
#	101508
#	115633
#	129258
#	138033
#
# Disc length: 2033 seconds
#
# Revision: 1
# Processed by: cddbd v1.4PL0 Copyright (c) Steve Scherf et al.
# Submitted via: audiograbber 1.82.01
#
DISCID=8007ef0c
DTITLE=Mina - Sono come tu mi vuoi
DYEAR=1900
DGENRE=
TTITLE0=E se domani
TTITLE1=La banda
TTITLE2=Una casa in cima al mondo
TTITLE3=Sono come tu mi vuoi
TTITLE4=Valentino Vale
TTITLE5=Lontanissimo
TTITLE6=Se telefonando
TTITLE7=Citta' vuota
TTITLE8=Mi sei scoppiato dentro il cuore
TTITLE9=You go to my head
TTITLE10=E' inutile
TTITLE11=La barca
EXTD=
EXTT0=
EXTT1=
EXTT2=
EXTT3=
EXTT4=
EXTT5=
EXTT6=
EXTT7=
EXTT8=
EXTT9=
EXTT10=
EXTT11=
PLAYORDER=
